<svg width="48" height="200" viewBox="0 0 48 200" fill="none" xmlns="http://www.w3.org/2000/svg">
<path d="M24 44C35.0457 44 44 35.0457 44 24C44 12.9543 35.0457 4 24 4C12.9543 4 4 12.9543 4 24C4 35.0457 12.9543 44 24 44Z" stroke="#1E1E1E" stroke-width="4" stroke-linecap="round" stroke-linejoin="round"/>
<path d="M24 196C35.0457 196 44 187.046 44 176C44 164.954 35.0457 156 24 156C12.9543 156 4 164.954 4 176C4 187.046 12.9543 196 24 196Z" stroke="#1E1E1E" stroke-width="4" stroke-linecap="round" stroke-linejoin="round"/>
<path d="M24 120C35.0457 120 44 111.046 44 100C44 88.9543 35.0457 80 24 80C12.9543 80 4 88.9543 4 100C4 111.046 12.9543 120 24 120Z" stroke="#1E1E1E" stroke-width="4" stroke-linecap="round" stroke-linejoin="round"/>
</svg>
